<svg id="assignment_turned_in_black_24dp_2_" data-name="assignment_turned_in_black_24dp (2)" xmlns="http://www.w3.org/2000/svg" width="24" height="24" viewBox="0 0 24 24">
  <defs>
    <style>
      .cls-1 {
        fill: none;
      }

      .cls-2 {
        fill: #333;
      }
    </style>
  </defs>
  <path id="Path_3530" data-name="Path 3530" class="cls-1" d="M0,0H24V24H0Z"/>
  <path id="Path_3531" data-name="Path 3531" class="cls-2" d="M19,3H14.82A2.988,2.988,0,0,0,9.18,3H5A2.006,2.006,0,0,0,3,5V19a2.006,2.006,0,0,0,2,2H19a2.006,2.006,0,0,0,2-2V5A2.006,2.006,0,0,0,19,3ZM12,3a1,1,0,1,1-1,1A1,1,0,0,1,12,3ZM9.29,16.29,6.7,13.7a1,1,0,0,1,1.41-1.41L10,14.17l5.88-5.88A1,1,0,1,1,17.29,9.7L10.7,16.29a1,1,0,0,1-1.41,0Z"/>
</svg>
