<svg xmlns="http://www.w3.org/2000/svg" width="32" height="32.98" viewBox="0 0 32 32.98">
  <g id="Group_2294" data-name="Group 2294" transform="translate(-38 -284.132)">
    <g id="Group_2132" data-name="Group 2132">
      <path id="Path_3155" data-name="Path 3155" d="M-11344.083,211.883s3.883,7.139,10.528,7.143,11.707-7.143,11.707-7.143-4.812-6.074-11.2-6.378S-11344.083,211.883-11344.083,211.883Z" transform="translate(11387.001 80)" fill="#f3f3f9"/>
      <g id="Layer_1" data-name="Layer 1" transform="translate(38 284.132)">
        <path id="Path_1" data-name="Path 1" d="M102,73a16.5,16.5,0,1,0,16,16.49A16.251,16.251,0,0,0,102,73Zm-.019,2.444a13.343,13.343,0,0,1,10.6,5.3L102.087,87.9l-10.7-7.163A13.342,13.342,0,0,1,101.981,75.444Zm0,28.092a13.287,13.287,0,0,1-9.945-4.514l5.6-3.9a1.222,1.222,0,0,0-.745-2.313l-.059.014q-.058.015-.115.036l-.055.022a1.218,1.218,0,0,0-.248.141L96.4,93l-5.825,4.063a14.515,14.515,0,0,1-.5-14.263l11.334,7.589a1.219,1.219,0,0,0,1.373,0h0l11.113-7.579a14.515,14.515,0,0,1-.458,14.175l-5.866-3.954a1.22,1.22,0,0,0-1.417.031q-.047.035-.09.075t-.083.083a1.226,1.226,0,0,0-.2.292q-.026.053-.046.11a1.229,1.229,0,0,0,0,.84q.021.056.046.11a1.226,1.226,0,0,0,.2.292q.039.043.083.083t.09.075l.053.038,5.782,3.9A13.292,13.292,0,0,1,101.981,103.536Z" transform="translate(-86 -73)" fill="#f3f3f9"/>
      </g>
    </g>
  </g>
</svg>
