<svg xmlns="http://www.w3.org/2000/svg" width="20" height="20" viewBox="0 0 20 20">
  <defs>
    <style>
      .cls-1 {
        fill: none;
      }

    </style>
  </defs>
  <path id="Path_3563" data-name="Path 3563" class="cls-1" d="M0,0H20V20H0Z"/>
  <path id="Path_3564" data-name="Path 3564" d="M17,4H3.667A1.664,1.664,0,0,0,2.008,5.667L2,15.667a1.672,1.672,0,0,0,1.667,1.667H17a1.672,1.672,0,0,0,1.667-1.667v-10A1.672,1.672,0,0,0,17,4Zm-.333,3.542-5.892,3.683a.843.843,0,0,1-.883,0L4,7.542a.708.708,0,1,1,.75-1.2l5.583,3.492,5.583-3.492a.708.708,0,1,1,.75,1.2Z" transform="translate(-0.333 -0.667)"/>
</svg>
