<svg xmlns="http://www.w3.org/2000/svg" width="22" height="22" viewBox="0 0 22 22">
  <defs>
    <style>
      .cls-1 {
        fill: none;
      }

      .cls-2 {
        fill: #0277bd;
      }
    </style>
  </defs>
  <g>
    <rect data-name="Rectangle 792" class="cls-1" width="22" height="22"/>
  </g>
  <g transform="translate(3.667 1.833)">
    <path data-name="Path 3558" class="cls-2" d="M18.126,6.959,13.7,2.532A1.831,1.831,0,0,0,12.406,2H5.833A1.831,1.831,0,0,0,4.009,3.833L4,18.5a1.831,1.831,0,0,0,1.824,1.833H16.833A1.839,1.839,0,0,0,18.667,18.5V8.261A1.839,1.839,0,0,0,18.126,6.959ZM13.9,13.917H12.25v2.75a.917.917,0,1,1-1.833,0v-2.75H8.776a.454.454,0,0,1-.321-.779l2.567-2.557a.471.471,0,0,1,.651,0l2.558,2.557A.462.462,0,0,1,13.9,13.917Zm-.733-5.5A.919.919,0,0,1,12.25,7.5V3.375l5.042,5.042Z" transform="translate(-4 -2)"/>
  </g>
</svg>
